#!OML:ASF F:\VICON\USERDATA\INSTALL\rory3\rory3.ASF
:FULLY-SPECIFIED
:DEGREES
135
root -0.22169835299644092 17.317083806766746 28.242703369263275 3.008533526707994 -2.2443240596325387 -3.128533340778035
lfemur -11.876268679956343 4.06731841365682 -19.738094732449966
ltibia 57.800461336826025
lfoot 0.03280983476499544 -8.356210105867438
ltoes -9.93229547801181
rfemur -27.603988967892526 2.341562995550883 29.48394871235195
rtibia 95.55555860569015
rfoot 2.8908191179755787 -6.25598473199248
rtoes 8.089181837202993
lowerback 15.582782375040118 2.079065553402344 1.0352424808232294
upperback -0.9144397238362921 2.9850187054049746 0.6313423977615065
thorax -10.055606996106242 1.4530272796174146 -0.6585650915772654
lowerneck -22.059701512642405 -4.032332075437331 -1.658126591168087
upperneck 12.900231976290927 -5.6657069572812 3.485575068283116
head 7.790050282789745 -2.3601287710579864 0.7684261412684922
lclavicle 7.933867045934568e-17 -3.5106937240863336e-16
lhumerus -44.310065346744814 -16.172454510090557 97.52540904552113
lradius 110.34763925196438
lwrist 34.11574419870962
lhand -24.415890440469454 3.0481734648344685
lfingers 7.12502
lthumb 2.066481389648544 31.860769058777596
rclavicle 7.933867069373109e-17 -3.5106937223228695e-16
rhumerus -51.340607807023645 8.22184594958071 -96.44877560236955
rradius 109.02046509595495
rwrist -9.981739671243925
rhand -17.174706138130553 40.16953941227116
rfingers 7.12502
rthumb 9.53103706784928 10.161182893035292
136
root -0.22611490872142712 17.373121667359808 28.3460946601544 3.1441883900921495 -2.3839631932252887 -3.224420522878082
lfemur -12.165469655677677 4.089539722932094 -19.514948705557046
ltibia 58.956885046160224
lfoot 0.08373163862082222 -8.88682036027899
ltoes -10.590843182321638
rfemur -27.05404378103848 2.5742642072926203 29.702521235046436
rtibia 94.46369359337871
rfoot 2.962124560104965 -6.787024465531449
rtoes 8.526192849312972
lowerback 15.538402981963511 2.063168686342198 1.1187375529703871
upperback -0.9490968034269602 2.997513839409458 0.7492490587285696
thorax -10.061457285329361 1.4561086253902435 -0.631834956714902
lowerneck -21.948067021674778 -3.967949487341228 -1.6553617529136693
upperneck 13.020027699539696 -5.569552115242006 3.425890281318004
head 7.829527012402723 -2.3173356535876035 0.7488867779990791
lclavicle 7.933867046183942e-17 -3.5106937240675794e-16
lhumerus -44.969850357424214 -16.05834759610551 97.54998307134314
lradius 110.11855685798308
lwrist 34.14483172624351
lhand -24.365200915900363 2.837730639307521
lfingers 7.12502
lthumb 2.0949265362275558 31.6435521513326
rclavicle 7.933867069199853e-17 -3.510693722336652e-16
rhumerus -51.55230890643579 8.248671191147045 -96.37442187227373
rradius 109.06856523975665
rwrist -10.234239320688793
rhand -17.287275862344423 40.349471942846314
rfingers 7.12502
rthumb 9.486034443033075 10.511393807144133
137
root -0.22228610306904203 17.43361933471756 28.463710899333428 3.2709657164262893 -2.5057379086087703 -3.312184527963117
lfemur -12.419318449090204 4.067250424356394 -19.328912500746146
ltibia 60.10355665796328
lfoot -0.02161222548960834 -9.022673635180361
ltoes -10.674248426557941
rfemur -26.399601067604983 2.755026600606677 29.8981038236589
rtibia 93.39854897554721
rfoot 3.2348403420773018 -7.1421128177082815
rtoes 7.866255728463183
lowerback 15.464500335499231 2.044936943253039 1.222497873285948
upperback -0.975773858780059 3.0008172261832557 0.8443258947935932
thorax -10.005026420446567 1.4668523312560575 -0.6034462823999247
lowerneck -21.826041587498175 -3.9171754956712994 -1.6392629262955452
upperneck 13.180058337229166 -5.501262315163904 3.362019535900349
head 7.8779597175983715 -2.2915730667334064 0.725922679404291
lclavicle 7.933867046368502e-17 -3.510693724054195e-16
lhumerus -45.612752800741966 -15.798056314202785 97.60661372450333
lradius 109.88812451983176
lwrist 34.07775754432678
lhand -24.17070667444261 2.8573175850688264
lfingers 7.12502
lthumb 2.2174421359655865 31.668168565553668
rclavicle 7.933867068848882e-17 -3.5106937223648315e-16
rhumerus -51.78022599555286 8.290208419220615 -96.28276627664435
rradius 109.12455944919388
rwrist -10.488149841591738
rhand -17.291759563251308 40.63950262236861
rfingers 7.12502
rthumb 9.447304495727122 10.867328247813735
138
root -0.2258242971019589 17.492278727659077 28.632654735939873 3.3858658813223372 -2.642809101535759 -3.392085106201736
lfemur -12.688200641092063 4.026900728716895 -19.169157688046912
ltibia 61.253996720016794
lfoot 0.22038729651974714 -8.377484268056154
ltoes -10.47110489677939
rfemur -25.717565994067446 2.9919166972555695 30.081643448343833
rtibia 92.40620237198422
rfoot 3.329651366561584 -7.558546358262737
rtoes 7.732083785089583
lowerback 15.421534065313637 2.0402098896113605 1.2970690742288318
upperback -1.0335367419862147 3.0318742080574577 0.9557423686916459
thorax -10.011185601675848 1.4814270642264717 -0.584044859995231
lowerneck -21.650891519102625 -3.887058348064303 -1.6324633996515339
upperneck 13.354686244191441 -5.459583079881368 3.2916521497380415
head 7.9351421317380115 -2.2771353311998226 0.6989658236601
lclavicle 7.933867046521605e-17 -3.5106937240435556e-16
lhumerus -46.25654841139566 -15.498504466407036 97.65526697349625
lradius 109.63950984409206
lwrist 34.02187749411174
lhand -24.06122874735453 2.8390790070187606
lfingers 7.12502
lthumb 2.3474282802591033 31.764595543281043
rclavicle 7.933867068682497e-17 -3.5106937223789595e-16
rhumerus -52.02698721080362 8.326945566486536 -96.1794953328189
rradius 109.18813854541246
rwrist -10.62421649468326
rhand -17.34152935288794 40.87907245503177
rfingers 7.12502
rthumb 9.355705311401575 11.213959041520559
